<?xml version="1.0" encoding="UTF-8" standalone="no"?>
<svg xmlns="http://www.w3.org/2000/svg" width="200" height="200" viewBox="0 0 200 200">
  <circle cx="100" cy="100" r="80" fill="#F6C6EA" opacity="0.2"/>
  
  <!-- People icons -->
  <circle cx="70" cy="80" r="20" fill="#EE6AA7"/>
  <circle cx="130" cy="80" r="20" fill="#7F93D1"/>
  <circle cx="100" cy="130" r="20" fill="#F6C6EA"/>
  
  <!-- Connection lines -->
  <line x1="70" y1="80" x2="130" y2="80" stroke="#666" stroke-width="2" stroke-dasharray="5,5"/>
  <line x1="70" y1="80" x2="100" y2="130" stroke="#666" stroke-width="2" stroke-dasharray="5,5"/>
  <line x1="130" y1="80" x2="100" y2="130" stroke="#666" stroke-width="2" stroke-dasharray="5,5"/>
  
  <!-- Faces -->
  <circle cx="63" cy="75" r="3" fill="white"/>
  <circle cx="77" cy="75" r="3" fill="white"/>
  <path d="M63,90 Q70,95 77,90" stroke="white" stroke-width="2" fill="none"/>
  
  <circle cx="123" cy="75" r="3" fill="white"/>
  <circle cx="137" cy="75" r="3" fill="white"/>
  <path d="M123,90 Q130,95 137,90" stroke="white" stroke-width="2" fill="none"/>
  
  <circle cx="93" cy="125" r="3" fill="white"/>
  <circle cx="107" cy="125" r="3" fill="white"/>
  <path d="M93,140 Q100,145 107,140" stroke="white" stroke-width="2" fill="none"/>
</svg>
